<?xml version="1.0" standalone="no"?><!-- Generator: Gravit.io --><svg xmlns="http://www.w3.org/2000/svg" xmlns:xlink="http://www.w3.org/1999/xlink" style="isolation:isolate" viewBox="606 257 605 226.656" width="605" height="226.656"><path d=" M 613.776 391.208 L 613.776 314.456 L 613.776 314.456 Q 615.216 314.024 618.384 313.52 L 618.384 313.52 L 618.384 313.52 Q 621.552 313.016 624.864 313.016 L 624.864 313.016 L 624.864 313.016 Q 628.032 313.016 630.552 313.448 L 630.552 313.448 L 630.552 313.448 Q 633.072 313.88 634.8 315.176 L 634.8 315.176 L 634.8 315.176 Q 636.528 316.472 637.392 318.704 L 637.392 318.704 L 637.392 318.704 Q 638.256 320.936 638.256 324.536 L 638.256 324.536 L 638.256 338.648 L 638.256 338.648 Q 641.856 337.208 645.096 336.632 L 645.096 336.632 L 645.096 336.632 Q 648.336 336.056 652.224 336.056 L 652.224 336.056 L 652.224 336.056 Q 659.136 336.056 665.328 338.504 L 665.328 338.504 L 665.328 338.504 Q 671.52 340.952 676.272 345.632 L 676.272 345.632 L 676.272 345.632 Q 681.024 350.312 683.76 357.224 L 683.76 357.224 L 683.76 357.224 Q 686.496 364.136 686.496 373.208 L 686.496 373.208 L 686.496 373.208 Q 686.496 382.568 683.688 389.552 L 683.688 389.552 L 683.688 389.552 Q 680.88 396.536 675.84 401.144 L 675.84 401.144 L 675.84 401.144 Q 670.8 405.752 663.528 408.128 L 663.528 408.128 L 663.528 408.128 Q 656.256 410.504 647.472 410.504 L 647.472 410.504 L 647.472 410.504 Q 637.968 410.504 631.344 408.272 L 631.344 408.272 L 631.344 408.272 Q 624.72 406.04 620.112 402.728 L 620.112 402.728 L 620.112 402.728 Q 613.776 398.264 613.776 391.208 L 613.776 391.208 Z  M 647.472 391.208 L 647.472 391.208 L 647.472 391.208 Q 654.096 391.208 657.768 386.672 L 657.768 386.672 L 657.768 386.672 Q 661.44 382.136 661.44 373.208 L 661.44 373.208 L 661.44 373.208 Q 661.44 364.136 657.696 359.672 L 657.696 359.672 L 657.696 359.672 Q 653.952 355.208 647.616 355.208 L 647.616 355.208 L 647.616 355.208 Q 644.736 355.208 642.648 355.784 L 642.648 355.784 L 642.648 355.784 Q 640.56 356.36 638.112 357.512 L 638.112 357.512 L 638.112 388.904 L 638.112 388.904 Q 639.696 389.912 641.928 390.56 L 641.928 390.56 L 641.928 390.56 Q 644.16 391.208 647.472 391.208 Z  M 770.88 373.208 L 770.88 373.208 L 770.88 373.208 Q 770.88 382.136 768.144 389.12 L 768.144 389.12 L 768.144 389.12 Q 765.408 396.104 760.44 400.856 L 760.44 400.856 L 760.44 400.856 Q 755.472 405.608 748.56 408.056 L 748.56 408.056 L 748.56 408.056 Q 741.648 410.504 733.152 410.504 L 733.152 410.504 L 733.152 410.504 Q 724.656 410.504 717.744 407.912 L 717.744 407.912 L 717.744 407.912 Q 710.832 405.32 705.864 400.496 L 705.864 400.496 L 705.864 400.496 Q 700.896 395.672 698.16 388.76 L 698.16 388.76 L 698.16 388.76 Q 695.424 381.848 695.424 373.208 L 695.424 373.208 L 695.424 373.208 Q 695.424 364.712 698.16 357.8 L 698.16 357.8 L 698.16 357.8 Q 700.896 350.888 705.864 346.064 L 705.864 346.064 L 705.864 346.064 Q 710.832 341.24 717.744 338.648 L 717.744 338.648 L 717.744 338.648 Q 724.656 336.056 733.152 336.056 L 733.152 336.056 L 733.152 336.056 Q 741.648 336.056 748.56 338.72 L 748.56 338.72 L 748.56 338.72 Q 755.472 341.384 760.44 346.208 L 760.44 346.208 L 760.44 346.208 Q 765.408 351.032 768.144 357.944 L 768.144 357.944 L 768.144 357.944 Q 770.88 364.856 770.88 373.208 Z  M 720.48 373.208 L 720.48 373.208 L 720.48 373.208 Q 720.48 381.992 723.864 386.672 L 723.864 386.672 L 723.864 386.672 Q 727.248 391.352 733.296 391.352 L 733.296 391.352 L 733.296 391.352 Q 739.344 391.352 742.584 386.6 L 742.584 386.6 L 742.584 386.6 Q 745.824 381.848 745.824 373.208 L 745.824 373.208 L 745.824 373.208 Q 745.824 364.568 742.512 359.888 L 742.512 359.888 L 742.512 359.888 Q 739.2 355.208 733.152 355.208 L 733.152 355.208 L 733.152 355.208 Q 727.104 355.208 723.792 359.888 L 723.792 359.888 L 723.792 359.888 Q 720.48 364.568 720.48 373.208 Z  M 855.264 373.208 L 855.264 373.208 L 855.264 373.208 Q 855.264 382.136 852.528 389.12 L 852.528 389.12 L 852.528 389.12 Q 849.792 396.104 844.824 400.856 L 844.824 400.856 L 844.824 400.856 Q 839.856 405.608 832.944 408.056 L 832.944 408.056 L 832.944 408.056 Q 826.032 410.504 817.536 410.504 L 817.536 410.504 L 817.536 410.504 Q 809.04 410.504 802.128 407.912 L 802.128 407.912 L 802.128 407.912 Q 795.216 405.32 790.248 400.496 L 790.248 400.496 L 790.248 400.496 Q 785.28 395.672 782.544 388.76 L 782.544 388.76 L 782.544 388.76 Q 779.808 381.848 779.808 373.208 L 779.808 373.208 L 779.808 373.208 Q 779.808 364.712 782.544 357.8 L 782.544 357.8 L 782.544 357.8 Q 785.28 350.888 790.248 346.064 L 790.248 346.064 L 790.248 346.064 Q 795.216 341.24 802.128 338.648 L 802.128 338.648 L 802.128 338.648 Q 809.04 336.056 817.536 336.056 L 817.536 336.056 L 817.536 336.056 Q 826.032 336.056 832.944 338.72 L 832.944 338.72 L 832.944 338.72 Q 839.856 341.384 844.824 346.208 L 844.824 346.208 L 844.824 346.208 Q 849.792 351.032 852.528 357.944 L 852.528 357.944 L 852.528 357.944 Q 855.264 364.856 855.264 373.208 Z  M 804.864 373.208 L 804.864 373.208 L 804.864 373.208 Q 804.864 381.992 808.248 386.672 L 808.248 386.672 L 808.248 386.672 Q 811.632 391.352 817.68 391.352 L 817.68 391.352 L 817.68 391.352 Q 823.728 391.352 826.968 386.6 L 826.968 386.6 L 826.968 386.6 Q 830.208 381.848 830.208 373.208 L 830.208 373.208 L 830.208 373.208 Q 830.208 364.568 826.896 359.888 L 826.896 359.888 L 826.896 359.888 Q 823.584 355.208 817.536 355.208 L 817.536 355.208 L 817.536 355.208 Q 811.488 355.208 808.176 359.888 L 808.176 359.888 L 808.176 359.888 Q 804.864 364.568 804.864 373.208 Z  M 912.576 372.488 L 935.616 395.528 L 935.616 395.528 Q 934.896 402.296 931.656 405.896 L 931.656 405.896 L 931.656 405.896 Q 928.416 409.496 922.224 409.496 L 922.224 409.496 L 922.224 409.496 Q 917.616 409.496 914.016 407.264 L 914.016 407.264 L 914.016 407.264 Q 910.416 405.032 906.24 399.704 L 906.24 399.704 L 891.984 381.848 L 891.984 408.056 L 891.984 408.056 Q 890.4 408.344 887.304 408.848 L 887.304 408.848 L 887.304 408.848 Q 884.208 409.352 881.04 409.352 L 881.04 409.352 L 881.04 409.352 Q 877.872 409.352 875.352 408.92 L 875.352 408.92 L 875.352 408.92 Q 872.832 408.488 871.104 407.192 L 871.104 407.192 L 871.104 407.192 Q 869.376 405.896 868.44 403.664 L 868.44 403.664 L 868.44 403.664 Q 867.504 401.432 867.504 397.832 L 867.504 397.832 L 867.504 314.456 L 867.504 314.456 Q 869.088 314.024 872.184 313.52 L 872.184 313.52 L 872.184 313.52 Q 875.28 313.016 878.448 313.016 L 878.448 313.016 L 878.448 313.016 Q 881.616 313.016 884.136 313.448 L 884.136 313.448 L 884.136 313.448 Q 886.656 313.88 888.384 315.176 L 888.384 315.176 L 888.384 315.176 Q 890.112 316.472 891.048 318.704 L 891.048 318.704 L 891.048 318.704 Q 891.984 320.936 891.984 324.536 L 891.984 324.536 L 891.984 362.552 L 916.752 337.208 L 916.752 337.208 Q 924.24 337.208 928.776 340.52 L 928.776 340.52 L 928.776 340.52 Q 933.312 343.832 933.312 348.872 L 933.312 348.872 L 933.312 348.872 Q 933.312 351.032 932.592 352.832 L 932.592 352.832 L 932.592 352.832 Q 931.872 354.632 930.36 356.504 L 930.36 356.504 L 930.36 356.504 Q 928.848 358.376 926.472 360.464 L 926.472 360.464 L 926.472 360.464 Q 924.096 362.552 920.928 365.288 L 920.928 365.288 L 912.576 372.488 Z  M 947.424 391.208 L 947.424 314.456 L 947.424 314.456 Q 948.864 314.024 952.032 313.52 L 952.032 313.52 L 952.032 313.52 Q 955.2 313.016 958.512 313.016 L 958.512 313.016 L 958.512 313.016 Q 961.68 313.016 964.2 313.448 L 964.2 313.448 L 964.2 313.448 Q 966.72 313.88 968.448 315.176 L 968.448 315.176 L 968.448 315.176 Q 970.176 316.472 971.04 318.704 L 971.04 318.704 L 971.04 318.704 Q 971.904 320.936 971.904 324.536 L 971.904 324.536 L 971.904 338.648 L 971.904 338.648 Q 975.504 337.208 978.744 336.632 L 978.744 336.632 L 978.744 336.632 Q 981.984 336.056 985.872 336.056 L 985.872 336.056 L 985.872 336.056 Q 992.784 336.056 998.976 338.504 L 998.976 338.504 L 998.976 338.504 Q 1005.168 340.952 1009.92 345.632 L 1009.92 345.632 L 1009.92 345.632 Q 1014.672 350.312 1017.408 357.224 L 1017.408 357.224 L 1017.408 357.224 Q 1020.144 364.136 1020.144 373.208 L 1020.144 373.208 L 1020.144 373.208 Q 1020.144 382.568 1017.336 389.552 L 1017.336 389.552 L 1017.336 389.552 Q 1014.528 396.536 1009.488 401.144 L 1009.488 401.144 L 1009.488 401.144 Q 1004.448 405.752 997.176 408.128 L 997.176 408.128 L 997.176 408.128 Q 989.904 410.504 981.12 410.504 L 981.12 410.504 L 981.12 410.504 Q 971.616 410.504 964.992 408.272 L 964.992 408.272 L 964.992 408.272 Q 958.368 406.04 953.76 402.728 L 953.76 402.728 L 953.76 402.728 Q 947.424 398.264 947.424 391.208 L 947.424 391.208 Z  M 981.12 391.208 L 981.12 391.208 L 981.12 391.208 Q 987.744 391.208 991.416 386.672 L 991.416 386.672 L 991.416 386.672 Q 995.088 382.136 995.088 373.208 L 995.088 373.208 L 995.088 373.208 Q 995.088 364.136 991.344 359.672 L 991.344 359.672 L 991.344 359.672 Q 987.6 355.208 981.264 355.208 L 981.264 355.208 L 981.264 355.208 Q 978.384 355.208 976.296 355.784 L 976.296 355.784 L 976.296 355.784 Q 974.208 356.36 971.76 357.512 L 971.76 357.512 L 971.76 388.904 L 971.76 388.904 Q 973.344 389.912 975.576 390.56 L 975.576 390.56 L 975.576 390.56 Q 977.808 391.208 981.12 391.208 Z  M 1031.52 318.776 L 1031.52 318.776 L 1031.52 318.776 Q 1031.52 313.304 1035.192 309.56 L 1035.192 309.56 L 1035.192 309.56 Q 1038.864 305.816 1044.912 305.816 L 1044.912 305.816 L 1044.912 305.816 Q 1050.96 305.816 1054.632 309.56 L 1054.632 309.56 L 1054.632 309.56 Q 1058.304 313.304 1058.304 318.776 L 1058.304 318.776 L 1058.304 318.776 Q 1058.304 324.248 1054.632 327.992 L 1054.632 327.992 L 1054.632 327.992 Q 1050.96 331.736 1044.912 331.736 L 1044.912 331.736 L 1044.912 331.736 Q 1038.864 331.736 1035.192 327.992 L 1035.192 327.992 L 1035.192 327.992 Q 1031.52 324.248 1031.52 318.776 Z  M 1057.152 349.448 L 1057.152 408.056 L 1057.152 408.056 Q 1055.568 408.344 1052.472 408.848 L 1052.472 408.848 L 1052.472 408.848 Q 1049.376 409.352 1046.208 409.352 L 1046.208 409.352 L 1046.208 409.352 Q 1043.04 409.352 1040.52 408.92 L 1040.52 408.92 L 1040.52 408.92 Q 1038 408.488 1036.272 407.192 L 1036.272 407.192 L 1036.272 407.192 Q 1034.544 405.896 1033.608 403.664 L 1033.608 403.664 L 1033.608 403.664 Q 1032.672 401.432 1032.672 397.832 L 1032.672 397.832 L 1032.672 339.224 L 1032.672 339.224 Q 1034.256 338.936 1037.352 338.432 L 1037.352 338.432 L 1037.352 338.432 Q 1040.448 337.928 1043.616 337.928 L 1043.616 337.928 L 1043.616 337.928 Q 1046.784 337.928 1049.304 338.36 L 1049.304 338.36 L 1049.304 338.36 Q 1051.824 338.792 1053.552 340.088 L 1053.552 340.088 L 1053.552 340.088 Q 1055.28 341.384 1056.216 343.616 L 1056.216 343.616 L 1056.216 343.616 Q 1057.152 345.848 1057.152 349.448 L 1057.152 349.448 Z  M 1097.184 358.952 L 1097.184 408.056 L 1097.184 408.056 Q 1095.744 408.488 1092.648 408.92 L 1092.648 408.92 L 1092.648 408.92 Q 1089.552 409.352 1086.24 409.352 L 1086.24 409.352 L 1086.24 409.352 Q 1083.072 409.352 1080.552 408.92 L 1080.552 408.92 L 1080.552 408.92 Q 1078.032 408.488 1076.304 407.192 L 1076.304 407.192 L 1076.304 407.192 Q 1074.576 405.896 1073.64 403.664 L 1073.64 403.664 L 1073.64 403.664 Q 1072.704 401.432 1072.704 397.832 L 1072.704 397.832 L 1072.704 354.632 L 1072.704 354.632 Q 1072.704 351.32 1073.928 348.944 L 1073.928 348.944 L 1073.928 348.944 Q 1075.152 346.568 1077.456 344.696 L 1077.456 344.696 L 1077.456 344.696 Q 1079.76 342.824 1083.144 341.312 L 1083.144 341.312 L 1083.144 341.312 Q 1086.528 339.8 1090.416 338.648 L 1090.416 338.648 L 1090.416 338.648 Q 1094.304 337.496 1098.48 336.848 L 1098.48 336.848 L 1098.48 336.848 Q 1102.656 336.2 1106.832 336.2 L 1106.832 336.2 L 1106.832 336.2 Q 1113.744 336.2 1117.776 338.864 L 1117.776 338.864 L 1117.776 338.864 Q 1121.808 341.528 1121.808 347.576 L 1121.808 347.576 L 1121.808 347.576 Q 1121.808 349.592 1121.232 351.536 L 1121.232 351.536 L 1121.232 351.536 Q 1120.656 353.48 1119.792 355.064 L 1119.792 355.064 L 1119.792 355.064 Q 1116.768 355.064 1113.6 355.352 L 1113.6 355.352 L 1113.6 355.352 Q 1110.432 355.64 1107.408 356.216 L 1107.408 356.216 L 1107.408 356.216 Q 1104.384 356.792 1101.72 357.44 L 1101.72 357.44 L 1101.72 357.44 Q 1099.056 358.088 1097.184 358.952 L 1097.184 358.952 Z  M 1128.864 373.208 L 1128.864 373.208 L 1128.864 373.208 Q 1128.864 363.704 1131.744 356.72 L 1131.744 356.72 L 1131.744 356.72 Q 1134.624 349.736 1139.736 345.128 L 1139.736 345.128 L 1139.736 345.128 Q 1144.848 340.52 1151.688 338.288 L 1151.688 338.288 L 1151.688 338.288 Q 1158.528 336.056 1166.448 336.056 L 1166.448 336.056 L 1166.448 336.056 Q 1169.328 336.056 1172.064 336.56 L 1172.064 336.56 L 1172.064 336.56 Q 1174.8 337.064 1176.528 337.784 L 1176.528 337.784 L 1176.528 314.456 L 1176.528 314.456 Q 1177.968 314.024 1181.136 313.52 L 1181.136 313.52 L 1181.136 313.52 Q 1184.304 313.016 1187.616 313.016 L 1187.616 313.016 L 1187.616 313.016 Q 1190.784 313.016 1193.304 313.448 L 1193.304 313.448 L 1193.304 313.448 Q 1195.824 313.88 1197.552 315.176 L 1197.552 315.176 L 1197.552 315.176 Q 1199.28 316.472 1200.144 318.704 L 1200.144 318.704 L 1200.144 318.704 Q 1201.008 320.936 1201.008 324.536 L 1201.008 324.536 L 1201.008 392.792 L 1201.008 392.792 Q 1201.008 399.56 1194.672 403.592 L 1194.672 403.592 L 1194.672 403.592 Q 1190.496 406.328 1183.872 408.416 L 1183.872 408.416 L 1183.872 408.416 Q 1177.248 410.504 1168.608 410.504 L 1168.608 410.504 L 1168.608 410.504 Q 1159.248 410.504 1151.832 407.912 L 1151.832 407.912 L 1151.832 407.912 Q 1144.416 405.32 1139.304 400.424 L 1139.304 400.424 L 1139.304 400.424 Q 1134.192 395.528 1131.528 388.688 L 1131.528 388.688 L 1131.528 388.688 Q 1128.864 381.848 1128.864 373.208 Z  M 1169.76 355.208 L 1169.76 355.208 L 1169.76 355.208 Q 1161.984 355.208 1157.808 359.672 L 1157.808 359.672 L 1157.808 359.672 Q 1153.632 364.136 1153.632 373.208 L 1153.632 373.208 L 1153.632 373.208 Q 1153.632 382.136 1157.52 386.672 L 1157.52 386.672 L 1157.52 386.672 Q 1161.408 391.208 1168.752 391.208 L 1168.752 391.208 L 1168.752 391.208 Q 1171.344 391.208 1173.432 390.416 L 1173.432 390.416 L 1173.432 390.416 Q 1175.52 389.624 1176.672 388.616 L 1176.672 388.616 L 1176.672 356.936 L 1176.672 356.936 Q 1173.792 355.208 1169.76 355.208 Z " fill-rule="evenodd" fill="rgb(79,203,232)"/></svg>